<svg width="24" height="24" viewBox="0 0 24 24" fill="none" xmlns="http://www.w3.org/2000/svg">
<path d="M9.00098 10C11.2101 10 13.001 8.20914 13.001 6C13.001 3.79086 11.2101 2 9.00098 2C6.79184 2 5.00098 3.79086 5.00098 6C5.00098 8.20914 6.79184 10 9.00098 10Z" fill="black"/>
<path d="M9.00098 21.001C12.867 21.001 16.001 19.2101 16.001 17.001C16.001 14.7919 12.867 13.001 9.00098 13.001C5.13498 13.001 2.00098 14.7919 2.00098 17.001C2.00098 19.2101 5.13498 21.001 9.00098 21.001Z" fill="black"/>
<path d="M20.9999 17C20.9999 18.657 18.9639 20 16.4789 20C17.2109 19.2 17.7149 18.195 17.7149 17.002C17.7149 15.807 17.2099 14.802 16.4759 14.001C18.9619 14 20.9999 15.344 20.9999 17ZM17.9999 5.99999C18.0003 6.4827 17.8841 6.95837 17.6613 7.3866C17.4385 7.81482 17.1157 8.18297 16.7202 8.45976C16.3247 8.73656 15.8683 8.91385 15.3897 8.97656C14.9111 9.03927 14.4244 8.98556 13.9709 8.81999C14.459 7.96032 14.715 6.98851 14.7139 5.99999C14.7139 4.97499 14.4439 4.01299 13.9719 3.18099C14.4253 3.01562 14.9119 2.96207 15.3904 3.02488C15.8689 3.08769 16.3252 3.265 16.7205 3.54178C17.1158 3.81855 17.4386 4.18662 17.6613 4.61474C17.884 5.04286 18.0002 5.51739 17.9999 5.99999Z" fill="black"/>
</svg>
